<?xml version='1.0' encoding='iso-8859-1'?>
<!DOCTYPE svg PUBLIC '-//W3C//DTD SVG 1.1//EN' 'http://www.w3.org/Graphics/SVG/1.1/DTD/svg11.dtd'>
<svg version="1.1" xmlns="http://www.w3.org/2000/svg" viewBox="0 0 236.92 236.92" xmlns:xlink="http://www.w3.org/1999/xlink" enable-background="new 0 0 236.92 236.92">
  <g>
    <path d="m233.716,46.245l-31.822-16.76c-0.862-0.454-1.822-0.691-2.796-0.691h-59.074v-8.395c0-7.674-6.243-13.917-13.917-13.917-7.674,0-13.917,6.243-13.917,13.917v64.146h-74.368c-0.974,0-1.934,0.237-2.796,0.691l-31.822,16.76c-1.971,1.037-3.204,3.081-3.204,5.308s1.233,4.271 3.204,5.309l31.822,16.76c0.862,0.454 1.822,0.691 2.796,0.691h74.368v67.972h-8.802c-14.314,0-25.96,11.646-25.96,25.96v0.442c0,3.313 2.687,6 6,6h85.359c3.313,0 6-2.687 6-6v-0.442c0-14.314-11.646-25.96-25.96-25.96h-8.802v-123.723h59.074c0.974,0 1.934-0.237 2.796-0.691l31.822-16.759c1.971-1.038 3.204-3.082 3.204-5.309s-1.234-4.272-3.205-5.309zm-109.527,151.791v-177.637c0-1.057 0.86-1.917 1.917-1.917s1.917,0.86 1.917,1.917v177.637h-3.834zm-84.884-79.972l-20.43-10.76 20.43-10.76h72.884v21.52h-72.884zm122.327,100.374h-71.051c2.152-4.94 7.083-8.402 12.806-8.402h14.802 15.834 14.802c5.724,0 10.654,3.463 12.807,8.402zm35.983-156.125h-57.591v-21.52h57.591l20.429,10.76-20.429,10.76z"/>
  </g>
</svg>
